# xmcd
#
# Track frame offsets:
#	150
#	19383
#	36534
#	48938
#	65986
#	81708
#	101465
#	119662
#	135820
#	154317
#	167003
#
# Disc length: 2507 seconds
#
# Revision: 1
# Processed by: cddbd v1.5.2PL0 Copyright (c) Steve Scherf et al.
# Submitted via: audiograbber 1.83.01
#
DISCID=9e09c90b
DTITLE=Brother Sun - Brother Sun
DYEAR=2012
DGENRE=Folk
TTITLE0=Trouble
TTITLE1=Come With Me
TTITLE2=Love is the Water
TTITLE3=Shine
TTITLE4=Well, Well, Well
TTITLE5=Highway 4AM (Driving)
TTITLE6=Go Tell Mary
TTITLE7=Sister Moon
TTITLE8=Love is the Reason
TTITLE9=What Must be Done
TTITLE10=All I Want is a Garden
EXTD=
EXTT0=
EXTT1=
EXTT2=
EXTT3=
EXTT4=
EXTT5=
EXTT6=
EXTT7=
EXTT8=
EXTT9=
EXTT10=
PLAYORDER=
